<svg height="512pt" viewBox="0 0 512 511" width="512pt" xmlns="http://www.w3.org/2000/svg"><path d="m500.601562 240.898438-117.402343-29.699219c-2.699219-7.800781-6-15.300781-9.898438-21.898438l23.699219-55.5c2.402344-5.402343 1.199219-12-3-16.5-4.5-4.199219-11.101562-5.402343-16.5-3l-55.5 23.699219c-6.601562-3.902344-14.101562-7.199219-21.902344-9.898438l-29.699218-117.402343c-1.800782-6.597657-8.097657-10.199219-14.398438-10.199219s-12.597656 3.601562-14.398438 10.199219l-29.699218 117.402343c-7.800782 2.699219-15.300782 5.996094-21.902344 9.898438l-55.5-23.699219c-5.398438-2.402343-12-1.199219-16.5 3-4.199219 4.5-5.402344 11.097657-3 16.5l23.699219 55.5c-3.898438 6.597657-7.203125 14.097657-9.898438 21.898438l-117.402343 29.699219c-6.597657 1.503906-11.398438 7.5-11.398438 14.402343 0 6.898438 4.800781 12.898438 11.398438 14.398438l117.402343 29.699219c2.699219 7.800781 6 15.300781 9.898438 21.902343l-23.699219 55.5c-2.402344 5.398438-1.199219 12 3 16.5 4.5 4.199219 11.101562 5.398438 16.5 3l55.5-23.699219c6.601562 3.898438 14.101562 7.199219 21.902344 9.898438l29.699218 117.402344c1.5 6.597656 7.5 11.398437 14.398438 11.398437s12.898438-4.800781 14.398438-11.398437l29.699218-117.402344c7.800782-2.699219 15.300782-6 21.902344-9.898438l55.5 23.699219c5.398438 2.398438 12 1.199219 16.5-3 4.199219-4.5 5.402344-11.101562 3-16.5l-23.699219-55.5c3.898438-6.601562 7.199219-14.101562 9.898438-21.902343l117.402343-29.699219c6.597657-1.5 11.398438-7.5 11.398438-14.398438 0-6.902343-4.800781-12.898437-11.398438-14.402343zm0 0" fill="#a4d95e"/><path d="m512 255.300781c0 6.898438-4.800781 12.898438-11.398438 14.398438l-117.402343 29.699219c-2.699219 7.800781-6 15.300781-9.898438 21.902343l23.699219 55.5c2.402344 5.398438 1.199219 12-3 16.5-4.5 4.199219-11.101562 5.398438-16.5 3l-55.5-23.699219c-6.601562 3.898438-14.101562 7.199219-21.902344 9.898438l-29.699218 117.402344c-1.5 6.597656-7.5 11.398437-14.398438 11.398437v-510.800781c6.300781 0 12.597656 3.601562 14.398438 10.199219l29.699218 117.402343c7.800782 2.699219 15.300782 6 21.902344 9.898438l55.5-23.699219c5.398438-2.402343 12-1.199219 16.5 3 4.199219 4.5 5.402344 11.097657 3 16.5l-23.699219 55.5c3.898438 6.597657 7.199219 14.097657 9.898438 21.898438l117.402343 29.699219c6.597657 1.503906 11.398438 7.5 11.398438 14.402343zm0 0" fill="#84bf7e"/><path d="m211 270.300781c-16.539062 0-30-13.460937-30-30 0-16.539062 13.460938-30 30-30s30 13.460938 30 30c0 16.539063-13.460938 30-30 30zm0 0" fill="#ffb64c"/><path d="m331 255.300781c0 8.285157-6.714844 15-15 15s-15-6.714843-15-15c0-8.285156 6.714844-15 15-15s15 6.714844 15 15zm0 0" fill="#ff9100"/><path d="m301 195.300781c0 8.285157-6.714844 15-15 15s-15-6.714843-15-15c0-8.285156 6.714844-15 15-15s15 6.714844 15 15zm0 0" fill="#ff9100"/><path d="m271 315.300781c0 8.398438-6.597656 15-15 15s-15-6.601562-15-15c0-8.402343 6.597656-15 15-15s15 6.597657 15 15zm0 0" fill="#ffb64c"/><path d="m271 315.300781c0 8.398438-6.597656 15-15 15v-30c8.402344 0 15 6.597657 15 15zm0 0" fill="#ff9100"/></svg>
